<svg width="40" height="60" viewBox="0 0 40 60" fill="none" xmlns="http://www.w3.org/2000/svg">
<path fill-rule="evenodd" clip-rule="evenodd" d="M18.249 0.0649722C6.612 0.788972 0.531 7.37897 0 19.296H11.739C11.886 15.168 14.19 12.082 18.48 11.627C22.691 11.18 26.686 12.183 27.896 15.062C29.203 18.172 26.269 21.786 24.874 23.303C22.292 26.116 18.098 28.168 15.924 31.203C13.793 34.177 13.414 38.09 13.25 42.879H23.596C23.741 39.817 23.945 36.884 25.338 34.981C27.604 31.889 30.988 30.44 33.824 27.998C36.533 25.664 39.383 22.851 39.867 18.497C41.32 5.46597 30.683 -0.711028 18.249 0.0649722Z" fill="white"/>
<path d="M18.515 60C22.1226 60 25.047 57.1198 25.047 53.567C25.047 50.0141 22.1226 47.134 18.515 47.134C14.9075 47.134 11.983 50.0141 11.983 53.567C11.983 57.1198 14.9075 60 18.515 60Z" fill="white"/>
</svg>
